<svg width="1200" height="580" xmlns="http://www.w3.org/2000/svg" class="topography-shape js-shape" version="1.1">
 <g>
  <title>Layer 1</title>
  <path d="m734.567,34.372c-28.692,61.724 -23.266,100.422 16.275,116.094c59.313,23.508 200.347,32.911 259.299,83.906c58.95,50.994 238.697,11.572 269.438,-75.95c30.741,-87.522 86.09,-222.422 -205.771,-222.422c-194.576,0 -307.654,32.79 -339.24,98.372l-0.001,0z" fill="#FFFA72" fill-rule="nonzero" id="svg_1"/>
  <path d="m734.567,34.372c-28.692,61.724 -23.266,100.422 16.275,116.094c59.313,23.508 200.347,32.911 259.299,83.906c58.95,50.994 238.697,11.572 269.438,-75.95c30.741,-87.522 86.09,-222.422 -205.771,-222.422c-194.576,0 -307.654,32.79 -339.24,98.372l-0.001,0z" fill=" rgb(199, 225, 243)" fill-rule="nonzero" transform="translate(-1800, 60) scale(2.8, 2.8) skewX(30) " id="svg_2"/>
  <path d="m734.567,34.372c-28.692,61.724 -23.266,100.422 16.275,116.094c59.313,23.508 200.347,32.911 259.299,83.906c58.95,50.994 238.697,11.572 269.438,-75.95c30.741,-87.522 86.09,-222.422 -205.771,-222.422c-194.576,0 -307.654,32.79 -339.24,98.372l-0.001,0z" fill=" rgb(184, 207, 230)" fill-rule="nonzero" transform="translate(-1650, 55) scale(2.65, 2.65) skewX(27.5) " id="svg_3"/>
  <path d="m734.567,34.372c-28.692,61.724 -23.266,100.422 16.275,116.094c59.313,23.508 200.347,32.911 259.299,83.906c58.95,50.994 238.697,11.572 269.438,-75.95c30.741,-87.522 86.09,-222.422 -205.771,-222.422c-194.576,0 -307.654,32.79 -339.24,98.372l-0.001,0z" fill=" rgb(169, 190, 218)" fill-rule="nonzero" transform="translate(-1500, 50) scale(2.5, 2.5) skewX(25) " id="svg_4"/>
  <path d="m734.567,34.372c-28.692,61.724 -23.266,100.422 16.275,116.094c59.313,23.508 200.347,32.911 259.299,83.906c58.95,50.994 238.697,11.572 269.438,-75.95c30.741,-87.522 86.09,-222.422 -205.771,-222.422c-194.576,0 -307.654,32.79 -339.24,98.372l-0.001,0z" fill=" rgb(154, 173, 206)" fill-rule="nonzero" transform="translate(-1350, 45) scale(2.3499999999999996, 2.3499999999999996) skewX(22.5) " id="svg_5"/>
  <path d="m734.567,34.372c-28.692,61.724 -23.266,100.422 16.275,116.094c59.313,23.508 200.347,32.911 259.299,83.906c58.95,50.994 238.697,11.572 269.438,-75.95c30.741,-87.522 86.09,-222.422 -205.771,-222.422c-194.576,0 -307.654,32.79 -339.24,98.372l-0.001,0z" fill=" rgb(139, 155, 193)" fill-rule="nonzero" transform="translate(-1200, 40) scale(2.2, 2.2) skewX(20) " id="svg_6"/>
  <path d="m734.567,34.372c-28.692,61.724 -23.266,100.422 16.275,116.094c59.313,23.508 200.347,32.911 259.299,83.906c58.95,50.994 238.697,11.572 269.438,-75.95c30.741,-87.522 86.09,-222.422 -205.771,-222.422c-194.576,0 -307.654,32.79 -339.24,98.372l-0.001,0z" fill=" rgb(125, 138, 181)" fill-rule="nonzero" transform="translate(-1050, 35) scale(2.05, 2.05) skewX(17.5) " id="svg_7"/>
  <path d="m734.567,34.372c-28.692,61.724 -23.266,100.422 16.275,116.094c59.313,23.508 200.347,32.911 259.299,83.906c58.95,50.994 238.697,11.572 269.438,-75.95c30.741,-87.522 86.09,-222.422 -205.771,-222.422c-194.576,0 -307.654,32.79 -339.24,98.372l-0.001,0z" fill=" rgb(110, 121, 169)" fill-rule="nonzero" transform="translate(-900, 30) scale(1.9, 1.9) skewX(15) " id="svg_8"/>
  <path d="m734.567,34.372c-28.692,61.724 -23.266,100.422 16.275,116.094c59.313,23.508 200.347,32.911 259.299,83.906c58.95,50.994 238.697,11.572 269.438,-75.95c30.741,-87.522 86.09,-222.422 -205.771,-222.422c-194.576,0 -307.654,32.79 -339.24,98.372l-0.001,0z" fill=" rgb(95, 103, 156)" fill-rule="nonzero" transform="translate(-750, 25) scale(1.75, 1.75) skewX(12.5) " id="svg_9"/>
  <path d="m734.567,34.372c-28.692,61.724 -23.266,100.422 16.275,116.094c59.313,23.508 200.347,32.911 259.299,83.906c58.95,50.994 238.697,11.572 269.438,-75.95c30.741,-87.522 86.09,-222.422 -205.771,-222.422c-194.576,0 -307.654,32.79 -339.24,98.372l-0.001,0z" fill=" rgb(80, 86, 144)" fill-rule="nonzero" transform="translate(-600, 20) scale(1.6, 1.6) skewX(10) " id="svg_10"/>
  <path d="m734.567,34.372c-28.692,61.724 -23.266,100.422 16.275,116.094c59.313,23.508 200.347,32.911 259.299,83.906c58.95,50.994 238.697,11.572 269.438,-75.95c30.741,-87.522 86.09,-222.422 -205.771,-222.422c-194.576,0 -307.654,32.79 -339.24,98.372l-0.001,0z" fill=" rgb(65, 69, 132)" fill-rule="nonzero" transform="translate(-450, 15) scale(1.45, 1.45) skewX(7.5) " id="svg_11"/>
  <path d="m734.567,34.372c-28.692,61.724 -23.266,100.422 16.275,116.094c59.313,23.508 200.347,32.911 259.299,83.906c58.95,50.994 238.697,11.572 269.438,-75.95c30.741,-87.522 86.09,-222.422 -205.771,-222.422c-194.576,0 -307.654,32.79 -339.24,98.372l-0.001,0z" fill=" rgb(50, 51, 119)" fill-rule="nonzero" transform="translate(-300, 10) scale(1.3, 1.3) skewX(5) " id="svg_12"/>
  <path d="m734.567,34.372c-28.692,61.724 -23.266,100.422 16.275,116.094c59.313,23.508 200.347,32.911 259.299,83.906c58.95,50.994 238.697,11.572 269.438,-75.95c30.741,-87.522 86.09,-222.422 -205.771,-222.422c-194.576,0 -307.654,32.79 -339.24,98.372l-0.001,0z" fill=" rgb(35, 34, 107)" fill-rule="nonzero" transform="translate(-150, 5) scale(1.15, 1.15) skewX(2.5) " id="svg_13"/>
 </g>

</svg>